<?xml version="1.0" encoding="UTF-8"?>
<svg width="100" height="100" viewBox="0 0 100 100" xmlns="http://www.w3.org/2000/svg">
  <circle cx="50" cy="50" r="48" fill="black" stroke="white" stroke-width="2"/>
  <path d="M60.5,76.5 C57.8,76.5 55.5,75.9 53.6,74.7 C51.7,73.5 50.3,71.8 49.4,69.6 C48.5,67.4 48,64.9 48,62 C48,59.1 48.5,56.6 49.4,54.4 C50.3,52.2 51.7,50.5 53.6,49.3 C55.5,48.1 57.8,47.5 60.5,47.5 C63.2,47.5 65.5,48.1 67.4,49.3 C69.3,50.5 70.7,52.2 71.6,54.4 C72.5,56.6 73,59.1 73,62 C73,64.9 72.5,67.4 71.6,69.6 C70.7,71.8 69.3,73.5 67.4,74.7 C65.5,75.9 63.2,76.5 60.5,76.5 Z M42,76 L31,25 L42,25 L48,55 L49,55 L55,25 L66,25 L54,76 L42,76 Z" fill="white"/>
</svg>